<svg height="512pt" viewBox="-96 0 512 512.00064" width="512pt" xmlns="http://www.w3.org/2000/svg"><path d="m287.144531 504.386719-13.195312-50.476563-80.53125-46.691406h-66.96875l-80.53125 46.691406-13.195313 50.476563" fill="#c9fff7"/><path d="m217.757812 421.328125-10.800781 53.894531-47.015625-34.507812-47.035156 34.507812-10.789062-53.894531 24.332031-14.109375h66.980469zm0 0" fill="#72cec0"/><path d="m193.4375 369.226562v37.992188c0 14.496094-9.195312 26.828125-22.074219 31.496094-3.5625 1.300781-7.410156 2-11.421875 2h-.007812c-18.492188 0-33.484375-14.992188-33.484375-33.496094v-37.980469zm0 0" fill="#e8b094"/><path d="m193.4375 393.210938v14.007812c0 14.496094-9.195312 26.828125-22.074219 31.496094-12.882812-4.660156-22.078125-17-22.078125-31.496094v-9.621094c3.503906.324219 7.054688.488282 10.648438.488282 11.640625 0 22.886718-1.707032 33.503906-4.875zm0 0" fill="#ffdbcc"/><path d="m276.777344 233.046875c1.5-.230469 3.074218-.34375 4.710937-.34375 18.675781 0 30.773438 15.132813 30.773438 33.808594s-17.40625 44.195312-36.082031 44.195312c-4.203126 0-7.695313-1.289062-10.589844-3.503906h-211.308594c-2.890625 2.214844-6.382812 3.503906-10.585938 3.503906-18.675781 0-36.082031-25.519531-36.082031-44.195312s12.097657-33.808594 30.773438-33.808594c1.632812 0 3.207031.113281 4.710937.34375" fill="#e8b094"/><path d="m300.277344 133.746094v105.15625l-194.078125-.792969-84.753907-.34375v-136.601563c0-22.226562 21.507813-38.089843 42.742188-31.542968 11.957031-38.003906 46.996094-61.957032 84.40625-61.957032 10.261719 0 20.6875 1.796876 30.867188 5.601563.449218.164063.894531.335937 1.339843.507813l51.25 20.035156c41.144531 16.089844 68.226563 55.753906 68.226563 99.9375zm0 0" fill="#f7d360"/><path d="m105.804688 84.449219c0 35.523437 28.835937 75.027343 28.835937 75.027343l-28.441406 78.632813-84.753907-.34375v-136.601563c0-22.226562 21.507813-38.089843 42.742188-31.542968 11.957031-38.003906 46.996094-61.957032 84.40625-61.957032 10.261719 0 20.6875 1.796876 30.867188 5.601563-38.933594-13.945313-73.65625 36.0625-73.65625 71.183594zm0 0" fill="#e58e13"/><path d="m71.398438 115.542969c66.882812 72.835937 205.382812 75.878906 205.382812 75.878906v65.863281c0 32.269532-13.085938 61.46875-34.226562 82.613282-21.144532 21.152343-50.355469 34.222656-82.621094 34.222656-64.523438 0-116.835938-52.3125-116.835938-116.835938v-65.507812c0-29.140625 10.65625-55.773438 28.296875-76.234375zm0 0" fill="#ffdbcc"/><path d="m82.503906 257.285156v-65.507812c0-19.695313 4.875-38.238282 13.476563-54.511719-8.882813-6.445313-17.171875-13.652344-24.582031-21.722656-.003907 0-.003907 0-.003907 0-17.640625 20.460937-28.296875 47.09375-28.296875 76.234375v65.511718c0 64.523438 52.3125 116.835938 116.835938 116.835938 6.714844 0 13.300781-.574219 19.707031-1.664062-55.140625-9.367188-97.136719-57.367188-97.136719-115.175782zm0 0" fill="#e8b094"/><path d="m134.941406 200.367188c-1.035156-4.074219-5.179687-6.53125-9.253906-5.496094l-34.511719 8.796875c-4.074219 1.039062-6.535156 5.183593-5.496093 9.257812.878906 3.445313 3.972656 5.734375 7.371093 5.734375.621094 0 1.253907-.078125 1.886719-.238281l34.507812-8.796875c4.074219-1.039062 6.535157-5.183594 5.496094-9.257812zm0 0"/><path d="m190.425781 209.625 34.511719 8.796875c.628906.164063 1.261719.238281 1.886719.238281 3.394531 0 6.492187-2.289062 7.371093-5.734375 1.035157-4.074219-1.421874-8.214843-5.496093-9.253906l-34.511719-8.796875c-4.078125-1.039062-8.21875 1.421875-9.257812 5.496094-1.039063 4.074218 1.421874 8.214844 5.496093 9.253906zm0 0"/><path d="m106.988281 235.40625v8.457031c0 4.203125 3.40625 7.613281 7.613281 7.613281 4.203126 0 7.609376-3.410156 7.609376-7.613281v-8.457031c0-4.203125-3.40625-7.613281-7.609376-7.613281-4.207031 0-7.613281 3.410156-7.613281 7.613281zm0 0"/><path d="m205.273438 227.792969c-4.203126 0-7.613282 3.410156-7.613282 7.613281v8.457031c0 4.203125 3.410156 7.613281 7.613282 7.613281 4.203124 0 7.613281-3.410156 7.613281-7.613281v-8.457031c0-4.203125-3.410157-7.613281-7.613281-7.613281zm0 0"/><path d="m159.9375 282.207031c6.355469 0 12.710938-2.417969 17.550781-7.257812 2.972657-2.972657 2.972657-7.792969 0-10.765625-2.976562-2.972656-7.796875-2.972656-10.765625 0-3.742187 3.742187-9.832031 3.742187-13.570312 0-2.972656-2.972656-7.792969-2.972656-10.765625 0-2.972657 2.972656-2.972657 7.792968 0 10.765625 4.839843 4.839843 11.195312 7.257812 17.550781 7.257812zm0 0"/><path d="m152.476562 313.71875c-25.96875-2.855469-32.003906-20.132812-32.300781-21.027344-1.238281-3.984375-5.460937-6.230468-9.460937-5.027344-4.027344 1.210938-6.308594 5.457032-5.097656 9.480469.339843 1.132813 8.742187 27.703125 45.195312 31.707031.28125.03125.5625.046876.839844.046876 3.832031 0 7.128906-2.886719 7.558594-6.785157.460937-4.179687-2.554688-7.9375-6.734376-8.394531zm0 0"/><path d="m247.9375 345.28125c8.417969-8.417969 15.472656-17.832031 21.070312-27.96875 2.273438.65625 4.660157 1.003906 7.171876 1.003906 23.121093 0 43.695312-28.96875 43.695312-51.804687 0-12.648438-4.488281-23.46875-11.988281-30.875v-101.890625c0-23.214844-6.917969-45.621094-20.007813-64.796875-2.371094-3.472657-7.105468-4.363281-10.582031-1.992188-3.46875 2.371094-4.363281 7.105469-1.992187 10.578125 11.355468 16.632813 17.359374 36.070313 17.359374 56.210938v92.929687c-2.625-.773437-5.390624-1.269531-8.269531-1.472656v-50.019531c0-4.207032-3.410156-7.613282-7.613281-7.613282s-7.613281 3.40625-7.613281 7.613282v8.226562c-29.730469-1.972656-137.183594-13.148437-192.160157-73.015625-.628906-.683593-1.378906-1.246093-2.207031-1.664062-3.117187-1.558594-6.894531-.800781-9.171875 1.839843-19.4375 22.546876-30.144531 51.390626-30.144531 81.207032v33.425781c-2.214844.152344-4.359375.484375-6.429687.980469v-125.019532c0-8.148437 3.761718-15.597656 10.320312-20.4375 6.554688-4.839843 14.785156-6.234374 22.570312-3.832031 4 1.238281 8.25-.992187 9.507813-4.988281 6.792969-21.601562 21.785156-38.882812 42.207031-48.664062 20.425782-9.78125 43.285156-10.628907 64.375-2.378907l51.238282 20.035157c9.414062 3.679687 18.171874 8.738281 26.03125 15.039062 3.28125 2.628906 8.070312 2.101562 10.699218-1.179688s2.101563-8.070312-1.179687-10.699218c-9.0625-7.265625-19.15625-13.097656-30.007813-17.339844l-51.238281-20.035156c-25.058594-9.800782-52.226563-8.796875-76.496094 2.828125-22.171875 10.617187-38.953125 28.679687-47.847656 51.292969-10.1875-1.242188-20.417969 1.414062-28.902344 7.671874-10.488281 7.738282-16.503906 19.652344-16.503906 32.6875v132.777344c-8.597656 7.398438-13.828125 18.917969-13.828125 32.570313 0 22.835937 20.574219 51.804687 43.695312 51.804687 2.535157 0 4.949219-.355468 7.242188-1.027344 14.699219 26.597657 38.855469 47.273438 67.898438 57.464844v28.078125l-37.421876 21.695313c-3.636718 2.109375-4.875 6.765625-2.765624 10.40625 1.410156 2.433594 3.964843 3.792968 6.589843 3.792968 1.296875 0 2.613281-.328124 3.8125-1.027343l7.683594-4.453125 8.710937 43.472656c.507813 2.550781 2.285157 4.660156 4.710938 5.601562.890625.347657 1.824219.515626 2.75.515626 1.597656 0 3.179688-.503907 4.503906-1.476563l34.910156-25.617187v48.644531c0 4.203125 3.410157 7.609375 7.613282 7.609375s7.613281-3.40625 7.613281-7.609375v-48.644531l34.90625 25.617187c2.097656 1.539063 4.835937 1.902344 7.257813.960937 2.425781-.9375 4.199218-3.050781 4.710937-5.601562l8.710937-43.472656 44.253907 25.65625 12.390625 47.410156c.894531 3.421875 3.980468 5.6875 7.359375 5.6875.636719 0 1.285156-.082031 1.933593-.25 4.066407-1.0625 6.5-5.222656 5.4375-9.289062l-13.195312-50.476563c-.511719-1.964844-1.789062-3.640625-3.546875-4.660156l-76.71875-44.480469v-28.035156c17.453125-6.089844 33.441406-16.074219 46.890625-29.527344zm56.710938-78.769531c0 15.109375-14.726563 36.582031-28.472657 36.582031-.152343 0-.304687-.011719-.453125-.015625 2.214844-5.601563 4.015625-11.371094 5.394532-17.265625 1.675781-5.96875 6.234374-15.726562 11.105468-15.726562 4.207032 0 7.613282-3.410157 7.613282-7.613282s-3.40625-7.613281-7.613282-7.613281c-2.890625 0-5.492187.605469-7.832031 1.628906v-15.984375c10.238281 1.308594 20.257813 9.566406 20.257813 26.007813zm-260.953126 36.582031c-13.746093 0-28.472656-21.472656-28.472656-36.582031 0-16.441407 10.023438-24.703125 20.261719-26.007813v15.980469c-2.339844-1.023437-4.941406-1.625-7.835937-1.625-4.203126 0-7.613282 3.410156-7.613282 7.613281s3.410156 7.613282 7.613282 7.613282c5.230468 0 10.027343 11.058593 11.429687 16.980468.015625.0625.042969.117188.058594.175782 1.347656 5.425781 3.042969 10.710937 5.074219 15.832031-.167969.007812-.339844.019531-.515626.019531zm7.011719-45.808594v-65.507812c0-23.371094 7.496094-46.058594 21.246094-64.734375 28.800781 28.09375 70.96875 48.652343 125.515625 61.171875 31.957031 7.335937 59.117188 9.71875 71.699219 10.476562v58.597656c0 29.167969-11.363281 56.59375-32 77.226563-20.621094 20.632813-48.050781 31.996094-77.234375 31.996094-60.226563 0-109.226563-49-109.226563-109.226563zm59.941407 167.894532 10.019531-5.8125c3.402343 10.984374 11.296875 20.007812 21.523437 24.925781l-24.164062 17.730469zm91.191406 36.84375-24.15625-17.726563c10.226562-4.914063 18.125-13.9375 21.53125-24.917969l10.003906 5.800782zm-16.015625-55.265626c-.015625.257813-.015625.511719-.007813.769532-.164062 14.128906-11.703125 25.574218-25.882812 25.574218-14.265625 0-25.871094-11.609374-25.871094-25.882812v-28.195312c8.347656 1.769531 17 2.710937 25.871094 2.710937 8.804687 0 17.472656-.917969 25.890625-2.691406zm0 0"/><path d="m58.976562 437.539062-16.878906 9.785157c-1.753906 1.015625-3.03125 2.695312-3.546875 4.660156l-13.195312 50.476563c-1.0625 4.066406 1.375 8.226562 5.441406 9.289062.644531.167969 1.292969.25 1.929687.25 3.378907 0 6.464844-2.265625 7.359376-5.6875l12.394531-47.410156 14.132812-8.195313c3.636719-2.105469 4.875-6.765625 2.765625-10.402343-2.105468-3.636719-6.765625-4.875-10.402344-2.765626zm0 0"/></svg>